<svg viewBox="0 0 2000 1400" xmlns="http://www.w3.org/2000/svg"><path d="M0 0h2000v1400H0z"/><rect x="1047" y="830" width="8" height="16" fill="#522546" rx="0" transform="matrix(1.08628 .55483 -.12962 .85437 316.815 -256.796)"/><rect x="1152" y="1126" width="8" height="14" fill="#88304E" rx="0" transform="matrix(.75029 .66099 -.64978 .76038 1146.556 -634.546)"/><rect x="1403" y="1369" width="9" height="17" fill="#522546" rx="0" transform="matrix(.27904 1.00844 -.977 .05285 2498.4 83.126)"/><rect x="1517" y="1022" width="12" height="32" fill="#88304E" rx="0" transform="matrix(-.87034 .36106 -.50232 -.9406 3412.71 1651.442)"/><rect x="214" y="900" width="10" height="29" fill="#311D3F" rx="0" transform="matrix(.87643 .50375 -.46707 .87253 371.834 33.14)"/><rect x="1461" y="1338" width="10" height="18" fill="#88304E" rx="0" transform="matrix(.93492 .54472 -.39615 .8388 885.872 -607.013)"/><rect x="1609" y="770" width="10" height="21" fill="#522546" rx="0" transform="matrix(-.32652 .97089 -.94858 -.24207 2843.415 -653.939)"/><rect x="599" y="543" width="7" height="10" fill="#88304E" rx="0" transform="matrix(1.03787 .36173 .087 .99384 8.909 -7.107)"/><rect x="1715" y="536" width="9" height="22" fill="#E23E57" rx="0" transform="matrix(.14298 .9927 -1.02491 -.12189 2178.14 -1063.256)"/><rect x="614" y="712" width="11" height="23" fill="#88304E" rx="0" transform="matrix(-.98868 -.05418 -.40887 -1.03386 1700.707 1671.056)"/><rect x="641" y="975" width="10" height="27" fill="#311D3F" rx="0" transform="rotate(51 646 988.5)"/><rect x="214" y="1183" width="7" height="17" fill="#311D3F" rx="0" transform="matrix(-.27564 .93715 -.96126 -.35974 1422.794 1435.326)"/><rect x="772" y="772" width="7" height="19" fill="#E23E57" rx="0" transform="matrix(-.55 .9063 -.84691 -.42262 1754.048 408.934)"/><rect x="492" y="673" width="10" height="12" fill="#E23E57" rx="0" transform="matrix(.97437 .1397 -.22495 .99405 165.48 -108.876)"/><rect x="1865" y="802" width="7" height="14" fill="#88304E" rx="0" transform="matrix(.75471 .90128 -.65606 .54154 989.077 -706.036)"/><rect x="912" y="1238" width="9" height="16" fill="#88304E" rx="0" transform="matrix(-.20888 .84921 -1.04704 -.53065 2833.007 1176.915)"/><rect x="1534" y="1038" width="13" height="25" fill="#522546" rx="0" transform="matrix(-.84876 .22776 -.7143 -.98652 4044.109 1979.97)"/><rect x="1264" y="883" width="12" height="35" fill="#522546" rx="0" transform="matrix(1.0275 .50008 -.22 .86616 445.261 -492.403)"/><rect x="1560" y="1269" width="12" height="18" fill="#E23E57" rx="0" transform="matrix(.06976 .99878 -.99756 .05234 2731.648 -325.653)"/><rect x="1957" y="198" width="7" height="10" fill="#522546" rx="0" transform="matrix(-.99528 .24207 -.13919 -.97089 3901.855 -6.025)"/><rect x="1503" y="1142" width="11" height="11" fill="#311D3F" rx="0" transform="matrix(.78767 .64367 -.61489 .7671 1119.362 -782.775)"/><rect x="589" y="767" width="10" height="23" fill="#E23E57" rx="0" transform="matrix(-.54176 .5332 -.9738 -.8874 1942.78 1311.782)"/><rect x="1851" y="1326" width="11" height="21" fill="#522546" rx="0" transform="matrix(.81794 .59511 -.55456 .8191 878.97 -569.014)"/><rect x="1444" y="1087" width="11" height="28" fill="#88304E" rx="0" transform="matrix(.48547 .84805 -.87582 .52992 1652.38 -711.687)"/><rect x="1228" y="1127" width="9" height="20" fill="#311D3F" rx="0" transform="matrix(-.77652 .30922 -.69409 -1.0114 3142.844 2330.243)"/><rect x="319" y="417" width="9" height="13" fill="#88304E" rx="0" transform="matrix(-.67962 .76038 -.72435 -.66099 776.753 497.166)"/><rect x="255" y="475" width="9" height="11" fill="#88304E" rx="0" transform="matrix(-.97026 .2443 -.20184 -.97983 517.109 924.384)"/><rect x="1896" y="523" width="9" height="9" fill="#E23E57" rx="0" transform="matrix(-1.00043 -.03544 -.43016 -1.0148 4276.078 1465.27)"/><rect x="1496" y="1311" width="9" height="26" fill="#88304E" rx="0" transform="matrix(-.98957 -.07083 -.0337 -1.01295 2918.877 3036.013)"/><rect x="712" y="355" width="8" height="10" fill="#E23E57" rx="0" transform="matrix(-.86777 .22842 -.61915 -.9894 1672.478 678.885)"/><rect x="200" y="832" width="12" height="23" fill="#522546" rx="0" transform="matrix(-.81085 .55143 -.56487 -.84912 741.93 1478.77)"/><rect x="1018" y="1096" width="13" height="16" fill="#311D3F" rx="0" transform="matrix(.25911 .9783 -.9671 .20794 1865.903 -109.952)"/><rect x="32" y="967" width="12" height="35" fill="#E23E57" rx="0" transform="matrix(1.03638 .34223 -.07458 .94027 317.838 47.131)"/><rect x="1196" y="952" width="12" height="23" fill="#E23E57" rx="0" transform="matrix(1.00855 .0349 .23176 .99954 11.879 -20.534)"/><rect x="58" y="515" width="13" height="29" fill="#311D3F" rx="0" transform="matrix(.32882 .97564 -.94298 .24325 644.208 330.989)"/><rect x="882" y="258" width="10" height="17" fill="#E23E57" rx="0" transform="matrix(-.6713 .51117 -.79356 -.88537 1757.883 237.582)"/><rect x="411" y="541" width="10" height="19" fill="#522546" rx="0" transform="matrix(-.9402 .29688 -.2931 -.97106 1052.604 888.212)"/><rect x="423" y="94" width="9" height="23" fill="#311D3F" rx="0" transform="matrix(-.43753 .76604 -.93828 -.64279 741.8 -154.17)"/><rect x="107" y="772" width="8" height="18" fill="#522546" rx="0" transform="matrix(.89859 .86189 -.62032 .51788 768.661 292.536)"/><rect x="1761" y="824" width="11" height="27" fill="#E23E57" rx="0" transform="matrix(.9592 .22776 -.23596 .98652 348.085 -670.822)"/><rect x="991" y="1086" width="7" height="12" fill="#E23E57" rx="0" transform="matrix(1.00879 .17375 -.03416 .9854 214.989 -191.593)"/><rect x="351" y="583" width="13" height="26" fill="#522546" rx="0" transform="matrix(-.32731 .97949 -.95137 -.2082 1001.163 351.182)"/><rect x="1562" y="127" width="9" height="16" fill="#88304E" rx="0" transform="matrix(-.99452 0 -.31826 -1.0055 3231.075 435.39)"/><rect x="424" y="285" width="10" height="14" fill="#88304E" rx="0" transform="matrix(.8378 .55996 -.54376 .83018 247.213 -213.117)"/><rect x="728" y="99" width="10" height="18" fill="#E23E57" rx="0" transform="matrix(-.39113 .89893 -.92167 -.43844 1125.896 -516.36)"/><rect x="166" y="31" width="7" height="19" fill="#E23E57" rx="0" transform="matrix(.13479 1.0457 -.97046 -.1099 179.274 -77.221)"/><rect x="1820" y="498" width="7" height="8" fill="#311D3F" rx="0" transform="matrix(.1934 1.05746 -.94229 .01846 1785.061 -807.662)"/><rect x="1171" y="977" width="13" height="33" fill="#311D3F" rx="0" transform="matrix(.80006 .98146 -.77429 .30006 1391.536 -188.433)"/><rect x="1377" y="987" width="7" height="16" fill="#E23E57" rx="0" transform="matrix(.32492 1 -1.01703 -.0524 2290.694 -261.005)"/><rect x="1843" y="644" width="7" height="15" fill="#E23E57" rx="0" transform="matrix(.77524 .50191 -.64963 .86933 795.389 -1003.195)"/><rect x="156" y="884" width="8" height="13" fill="#88304E" rx="0" transform="matrix(.51807 1.03061 -.9703 0 1190.454 765.494)"/><rect x="1660" y="335" width="7" height="13" fill="#522546" rx="0" transform="matrix(-.48546 .91578 -.87583 -.40773 2766.223 -1158.977)"/><rect x="767" y="607" width="13" height="27" fill="#311D3F" rx="0" transform="matrix(-.37352 .93415 -.91958 -.37742 1545.17 227.1)"/><rect x="1833" y="798" width="7" height="7" fill="#88304E" rx="0" transform="matrix(-.00077 .98721 -1.01282 -.17407 2747.423 -743.576)"/><rect x="603" y="360" width="13" height="24" fill="#522546" rx="0" transform="matrix(.97437 .05314 -.22495 1.01404 99.303 -145.083)"/><rect x="1305" y="523" width="10" height="16" fill="#E23E57" rx="0" transform="matrix(-.75208 .47826 -.67646 -.89947 2695.6 636.74)"/><rect x="728" y="782" width="10" height="13" fill="#311D3F" rx="0" transform="matrix(-.74126 .7098 -.66757 -.7098 1828.02 763.765)"/><rect x="1725" y="147" width="9" height="14" fill="#88304E" rx="0" transform="matrix(-.37272 .70769 -.9991 -.78597 2646.698 -353.39)"/><rect x="1783" y="1162" width="9" height="18" fill="#311D3F" rx="0" transform="matrix(.87975 .41301 -.4453 .92764 841.468 -968.707)"/><rect x="1822" y="605" width="9" height="10" fill="#E23E57" rx="0" transform="matrix(-1.02633 -.27373 -.17713 -1.02158 3939.364 2362.052)"/><rect x="1274" y="287" width="9" height="26" fill="#522546" rx="0" transform="matrix(-.82538 .6491 -.55693 -.77357 2505.031 -477.49)"/><rect x="1328" y="239" width="7" height="7" fill="#E23E57" rx="0" transform="matrix(-.08716 1.00229 -.9962 -.0175 1689.125 -1180.913)"/><rect x="1771" y="1083" width="10" height="21" fill="#88304E" rx="0" transform="matrix(-1.0079 .32577 -.14252 -.9461 3558.513 1487.474)"/><rect x="595" y="1224" width="11" height="31" fill="#311D3F" rx="0" transform="matrix(1.08129 .39388 .13746 .9749 85.736 -10.3)"/><rect x="1467" y="107" width="11" height="11" fill="#88304E" rx="0" transform="matrix(-.25214 .78597 -1.04529 -.70769 2070.616 -458.197)"/><rect x="1152" y="896" width="10" height="16" fill="#522546" rx="0" transform="matrix(1.0595 .6961 -.25989 .7731 451.396 -268.495)"/><rect x="497" y="853" width="11" height="23" fill="#311D3F" rx="0" transform="matrix(-.09537 .99708 -.9861 -.17581 1584.127 435.867)"/><rect x="1831" y="561" width="8" height="21" fill="#E23E57" rx="0" transform="matrix(1.10246 .59141 -.0564 .8768 122.019 -382.999)"/><rect x="1482" y="54" width="11" height="18" fill="#88304E" rx="0" transform="matrix(-.82904 .30573 -.5592 -1 2755.923 126)"/><rect x="837" y="1208" width="10" height="13" fill="#88304E" rx="0" transform="matrix(-.70228 .4884 -.72673 -.91853 2366.785 2160.269)"/><rect x="433" y="38" width="13" height="21" fill="#522546" rx="0" transform="matrix(-.57688 .71406 -.82357 -.71406 736.832 -168.928)"/><rect x="1683" y="1387" width="13" height="13" fill="#88304E" rx="0" transform="matrix(.99866 -.07063 -.12243 1.01 133.545 -162.201)"/><rect x="1631" y="284" width="11" height="13" fill="#522546" rx="0" transform="matrix(.08588 .99832 -.99266 .10493 1738.74 -1230.558)"/><rect x="1881" y="395" width="10" height="17" fill="#311D3F" rx="0" transform="matrix(.17322 .97974 -.9807 .22619 1965.783 -1733.779)"/><rect x="1487" y="704" width="8" height="22" fill="#E23E57" rx="0" transform="matrix(.85875 .48957 -.49337 .88322 625.429 -856)"/><rect x="651" y="903" width="12" height="32" fill="#E23E57" rx="0" transform="matrix(.5417 .79575 -.83344 .62171 1110.358 -267.5)"/><rect x="1551" y="393" width="8" height="10" fill="#88304E" rx="0" transform="matrix(.2114 1.03282 -1.0017 -.16358 1686.035 -667.514)"/><rect x="217" y="442" width="7" height="15" fill="#E23E57" rx="0" transform="matrix(-.03292 .97797 -1.03135 .26205 633.085 81.145)"/><rect x="895" y="732" width="10" height="25" fill="#311D3F" rx="0" transform="matrix(-.87175 .3558 -.41541 -.97756 1817.075 1410.143)"/><rect x="246" y="84" width="7" height="16" fill="#88304E" rx="0" transform="matrix(.33744 1.00382 -.9962 0 285.34 -136.625)"/><rect x="898" y="1237" width="8" height="15" fill="#311D3F" rx="0" transform="matrix(1.00853 .40898 -.17992 .91858 404.438 -172.763)"/><rect x="1096" y="782" width="13" height="26" fill="#522546" rx="0" transform="matrix(1.03094 .3439 -.07532 .94487 186.382 -219.447)"/><rect x="1193" y="348" width="7" height="9" fill="#522546" rx="0" transform="matrix(.141 .99756 -1.01478 -.08728 1458.718 -747.612)"/><rect x="862" y="564" width="10" height="26" fill="#522546" rx="0" transform="matrix(-.88251 .42914 -.4377 -.92029 1967.133 583.069)"/><rect x="1137" y="995" width="10" height="28" fill="#88304E" rx="0" transform="matrix(-.9397 .3092 -.34202 -.95164 2560.227 1655.968)"/><rect x="264" y="633" width="12" height="12" fill="#E23E57" rx="0" transform="matrix(1.00187 .34538 -.14273 .94893 297.658 -98.564)"/><rect x="1554" y="77" width="11" height="32" fill="#311D3F" rx="0" transform="matrix(.1047 .9781 -1.04657 -.22581 1550.768 -1274.896)"/><rect x="1004" y="319" width="10" height="27" fill="#88304E" rx="0" transform="matrix(-.08747 .99269 -1.01966 .13951 1394.806 -786.065)"/><rect x="648" y="772" width="9" height="21" fill="#522546" rx="0" transform="matrix(-.8289 .47126 -.56301 -.88632 1774.922 1111.459)"/><rect x="1513" y="1318" width="11" height="14" fill="#522546" rx="0" transform="matrix(1.0257 .37742 -.11086 .93415 347.255 -299.408)"/><rect x="581" y="488" width="13" height="15" fill="#E23E57" rx="0" transform="matrix(.88333 .43844 -.46973 .89893 274.789 -197.248)"/><rect x="1205" y="693" width="9" height="26" fill="#E23E57" rx="0" transform="matrix(-.94968 .05394 -.41874 -1.0292 2777.485 1668.94)"/><rect x="1266" y="1178" width="13" height="14" fill="#522546" rx="0" transform="matrix(-.8461 .31715 -.54912 -.97607 3051.504 2231.859)"/><rect x="652" y="223" width="11" height="29" fill="#88304E" rx="0" transform="matrix(-.87925 .30906 -.52953 -.9512 1417.723 248.724)"/><rect x="1636" y="272" width="11" height="30" fill="#522546" rx="0" transform="matrix(.69326 1.05504 -.89935 .07378 1005.995 -900.815)"/><rect x="566" y="561" width="7" height="20" fill="#522546" rx="0" transform="matrix(.62227 .86655 -.79473 .5003 766.085 -228.063)"/><rect x="1297" y="206" width="9" height="14" fill="#88304E" rx="0" transform="matrix(-.41306 .6438 -1.0246 -.82402 2209.656 -51.471)"/><rect x="883" y="232" width="13" height="14" fill="#E23E57" rx="0" transform="matrix(.82507 .45965 -.55628 .90211 291.98 -526.346)"/><rect x="1163" y="1288" width="9" height="15" fill="#E23E57" rx="0" transform="matrix(.1411 1.01463 -1.02076 -.25298 2469.727 795.59)"/><rect x="242" y="1384" width="9" height="21" fill="#E23E57" rx="0" transform="matrix(.82462 .66954 -.57773 .7436 971.633 201.12)"/><rect x="326" y="374" width="10" height="29" fill="#522546" rx="0" transform="matrix(-.92673 .35859 -.37452 -.93415 803.004 621.166)"/><rect x="1521" y="118" width="10" height="13" fill="#522546" rx="0" transform="matrix(-.32827 .88349 -.95734 -.46976 2159.967 -1218.504)"/><rect x="1091" y="1180" width="8" height="16" fill="#E23E57" rx="0" transform="matrix(-.85454 .48666 -.51318 -.87796 2573.102 1793.923)"/><rect x="301" y="70" width="13" height="30" fill="#E23E57" rx="0" transform="matrix(.678 .93372 -.81073 .35842 197.291 -227.218)"/><rect x="1405" y="379" width="8" height="23" fill="#88304E" rx="0" transform="matrix(1.08024 .31378 .13774 .96573 16.361 -180.294)"/><rect x="240" y="46" width="7" height="20" fill="#311D3F" rx="0" transform="matrix(-1.05552 -.19953 -.41835 -1.02648 563.829 236.513)"/><rect x="96" y="693" width="13" height="32" fill="#88304E" rx="0" transform="matrix(1.01547 .44166 -.18214 .90554 241.842 34.284)"/><rect x="1639" y="1335" width="12" height="14" fill="#311D3F" rx="0" transform="matrix(-.78097 .56131 -.57895 -.86435 3397.696 1988.737)"/><rect x="1121" y="269" width="13" height="24" fill="#311D3F" rx="0" transform="matrix(-.93455 .22998 -.3003 -.99614 2201.658 541.274)"/><rect x="940" y="86" width="13" height="22" fill="#311D3F" rx="0" transform="matrix(-.11918 .89395 -1.05526 -.47532 1218.67 -553.11)"/><rect x="1696" y="89" width="13" height="16" fill="#311D3F" rx="0" transform="matrix(-.72332 .84921 -.72558 -.53065 3002.955 -1386.535)"/><rect x="1299" y="796" width="13" height="28" fill="#E23E57" rx="0" transform="matrix(.1481 1.00751 -.99255 0 2090.216 -665.6)"/><rect x="1900" y="720" width="12" height="14" fill="#E23E57" rx="0" transform="matrix(.2089 1.03634 -.98321 -.09067 2244.863 -635.813)"/><rect x="1675" y="199" width="13" height="20" fill="#311D3F" rx="0" transform="matrix(.56361 .89114 -.83498 .45406 933.544 -1413.705)"/><rect x="1736" y="133" width="9" height="14" fill="#522546" rx="0" transform="matrix(-.17523 1.01108 -.99823 .05299 2194.726 -1902.867)"/><rect x="1028" y="51" width="11" height="23" fill="#E23E57" rx="0" transform="matrix(-.76604 .46593 -.64279 -.91444 1865.381 -123.286)"/><rect x="626" y="915" width="12" height="21" fill="#311D3F" rx="0" transform="matrix(-.33846 .83106 -.97499 -.56056 1936.745 963.26)"/><rect x="101" y="789" width="11" height="11" fill="#E23E57" rx="0" transform="matrix(.21176 1.04314 -.94383 .07294 717.586 658.012)"/><rect x="103" y="946" width="10" height="10" fill="#522546" rx="0" transform="matrix(.3629 1.00324 -1.06076 -.1769 1412.273 1031.873)"/><rect x="1465" y="508" width="12" height="21" fill="#311D3F" rx="0" transform="matrix(1.0126 .69988 -.38024 .72474 392.348 -706.179)"/><rect x="1319" y="1030" width="10" height="18" fill="#88304E" rx="0" transform="matrix(-.96714 .01791 -.42286 -1.02615 3280.942 2387.122)"/><rect x="606" y="827" width="13" height="34" fill="#311D3F" rx="0" transform="matrix(1.03496 .3558 .03299 .97756 57.911 -23.36)"/><rect x="845" y="738" width="9" height="15" fill="#522546" rx="0" transform="matrix(-.46082 .69994 -.93453 -.7506 2069.995 906.591)"/><rect x="1367" y="39" width="7" height="8" fill="#311D3F" rx="0" transform="matrix(-.04933 .90768 -1.07657 -.46249 1561.536 -914.695)"/><rect x="661" y="641" width="13" height="29" fill="#E23E57" rx="0" transform="matrix(-.99863 0 -.2289 -1.00137 1605.883 1346.882)"/><rect x="1624" y="78" width="8" height="12" fill="#522546" rx="0" transform="matrix(.39537 .9604 -.91276 .31205 1027.572 -1734.55)"/><rect x="323" y="675" width="10" height="14" fill="#88304E" rx="0" transform="matrix(.45558 .92733 -.8943 .37466 836.578 128.042)"/><rect x="476" y="1336" width="8" height="11" fill="#522546" rx="0" transform="matrix(.5436 .99313 -.92082 .1573 1853.493 704.235)"/><rect x="779" y="875" width="8" height="16" fill="#311D3F" rx="0" transform="matrix(.45749 .95469 -.89881 .3102 1284.974 -69.922)"/><rect x="798" y="1234" width="11" height="30" fill="#522546" rx="0" transform="matrix(.73135 .69476 -.682 .71945 1067.673 -193.81)"/><rect x="200" y="1329" width="9" height="25" fill="#88304E" rx="0" transform="matrix(-.8039 .59102 -.5855 -.81347 1293.085 2290.416)"/><rect x="952" y="637" width="11" height="28" fill="#522546" rx="0" transform="matrix(-.74917 .5339 -.6741 -.85442 2153.943 813.583)"/><rect x="1218" y="191" width="9" height="19" fill="#E23E57" rx="0" transform="matrix(.24895 .88552 -.99128 .49085 1116.19 -1174.092)"/><rect x="919" y="1128" width="7" height="19" fill="#311D3F" rx="0" transform="matrix(-1.00311 .1046 -.01699 -.99513 1723.569 2205.186)"/><rect x="86" y="293" width="9" height="19" fill="#522546" rx="0" transform="matrix(.91171 .6297 -.46218 .77762 222.432 7.122)"/><rect x="1424" y="306" width="9" height="25" fill="#E23E57" rx="0" transform="matrix(-.84017 .32577 -.62966 -.9461 2934.859 204.358)"/><rect x="809" y="122" width="7" height="20" fill="#522546" rx="0" transform="matrix(-.40674 .87796 -.91355 -.48666 1263.562 -446.02)"/><rect x="1468" y="49" width="7" height="12" fill="#311D3F" rx="0" transform="matrix(-.97245 .37512 -.2589 -.92846 2893.407 -368.807)"/><rect x="932" y="577" width="11" height="29" fill="#522546" rx="0" transform="matrix(.06883 1.00137 -.99381 .07002 1401.892 -306.687)"/><rect x="1564" y="946" width="12" height="35" fill="#522546" rx="0" transform="matrix(-.742 .37474 -.73553 -.97624 3620.858 1795.756)"/><rect x="915" y="1271" width="10" height="19" fill="#88304E" rx="0" transform="matrix(.90595 .7895 -.50644 .66247 920.414 -64.742)"/><rect x="128" y="743" width="13" height="34" fill="#311D3F" rx="0" transform="matrix(-.2476 .9514 -.96096 -.34628 1082.308 873.909)"/><rect x="665" y="203" width="7" height="12" fill="#E23E57" rx="0" transform="matrix(-1.02426 .26024 -.01993 -.97125 1337.888 167.755)"/><rect x="1528" y="506" width="7" height="9" fill="#522546" rx="0" transform="matrix(.33252 .99863 -.97228 .08737 1627.495 -956.406)"/><rect x="226" y="1027" width="7" height="8" fill="#311D3F" rx="0" transform="matrix(-1.01844 -.1769 -.1229 -1.00324 702.99 2150.549)"/><rect x="80" y="850" width="12" height="21" fill="#88304E" rx="0" transform="matrix(-.61566 .83106 -.78801 -.56056 817.03 1265.375)"/><rect x="977" y="14" width="9" height="24" fill="#E23E57" rx="0" transform="matrix(-1.00958 -.0716 -.46944 -1.0238 2061.831 349.483)"/><rect x="365" y="613" width="9" height="20" fill="#E23E57" rx="0" transform="matrix(-.94582 .19127 -.36224 -.98402 1012.855 1191.209)"/><rect x="1105" y="64" width="9" height="20" fill="#522546" rx="0" transform="matrix(.15684 .95689 -.9971 .29255 989.388 -970.571)"/><rect x="593" y="169" width="8" height="19" fill="#522546" rx="0" transform="matrix(-.73645 .52298 -.68645 -.87039 1169.1 126.91)"/><rect x="988" y="1032" width="11" height="20" fill="#88304E" rx="0" transform="matrix(.79817 .97284 -.7374 .35409 1270.913 -27.267)"/><rect x="1715" y="132" width="9" height="24" fill="#E23E57" rx="0" transform="matrix(.5827 .78683 -.79906 .63716 819.123 -1573.053)"/><rect x="1682" y="941" width="7" height="15" fill="#522546" rx="0" transform="matrix(.9676 .75655 -.48066 .65766 877.675 -832.6)"/><rect x="1825" y="1112" width="12" height="28" fill="#311D3F" rx="0" transform="matrix(-.98403 .10467 -.19121 -.99589 3890.74 2151.673)"/><rect x="45" y="78" width="12" height="29" fill="#522546" rx="0" transform="matrix(.5066 .98223 -.91962 .19093 137.263 26.527)"/><rect x="1878" y="1227" width="9" height="24" fill="#311D3F" rx="0" transform="matrix(.517 .80914 -.86026 .58787 1890.776 -1045.443)"/><rect x="1782" y="994" width="8" height="18" fill="#88304E" rx="0" transform="matrix(.80365 .44384 -.60535 .91 932.699 -985.292)"/><rect x="529" y="676" width="11" height="18" fill="#311D3F" rx="0" transform="matrix(-.59957 .73044 -.79005 -.70537 1565.548 683.516)"/><rect x="1930" y="228" width="10" height="25" fill="#88304E" rx="0" transform="matrix(.44498 .78683 -.91058 .63716 1297.573 -1741.734)"/><rect x="125" y="1204" width="13" height="27" fill="#88304E" rx="0" transform="matrix(-.74418 .37681 -.7152 -.98162 1210.373 2405.804)"/><rect x="984" y="1324" width="13" height="33" fill="#522546" rx="0" transform="matrix(-.81203 .51512 -.58987 -.8573 2680.476 1996.774)"/><rect x="1866" y="894" width="12" height="21" fill="#311D3F" rx="0" transform="matrix(.17365 1.04123 -.9848 -.14634 2437.69 -304.072)"/><rect x="898" y="282" width="8" height="20" fill="#88304E" rx="0" transform="matrix(-.86556 .16545 -.57926 -1.0446 1915.213 758.372)"/><rect x="1544" y="318" width="11" height="31" fill="#311D3F" rx="0" transform="matrix(-.6021 .65857 -.82581 -.7576 2823.79 -298.726)"/><rect x="1984" y="138" width="8" height="13" fill="#88304E" rx="0" transform="matrix(-.27964 .87632 -.97311 -.52654 2714.262 -1098.97)"/><rect x="1384" y="888" width="11" height="32" fill="#88304E" rx="0" transform="matrix(.88299 .53652 -.45077 .85862 491.484 -397.618)"/><rect x="1150" y="1269" width="12" height="27" fill="#311D3F" rx="0" transform="matrix(-.14208 1.00368 -.9839 -.08781 2330.934 376.806)"/><rect x="183" y="550" width="13" height="28" fill="#88304E" rx="0" transform="matrix(-1.04104 -.21428 -.23085 -1.0081 635.793 1220.417)"/><rect x="812" y="496" width="12" height="26" fill="#88304E" rx="0" transform="matrix(-.64698 .86189 -.7715 -.51788 1717.755 -18.402)"/><rect x="727" y="22" width="9" height="9" fill="#E23E57" rx="0" transform="matrix(-.42293 .92775 -.907 -.37483 1064.893 -667.76)"/><rect x="623" y="1082" width="12" height="29" fill="#311D3F" rx="0" transform="matrix(.82182 .64367 -.57419 .7671 891.148 -182.453)"/><rect x="1152" y="784" width="9" height="10" fill="#522546" rx="0" transform="matrix(.84718 .82416 -.59784 .59879 790.914 -411.782)"/><rect x="854" y="734" width="13" height="18" fill="#88304E" rx="0" transform="matrix(.17498 1.00382 -.9962 0 1521.694 -45.503)"/><rect x="328" y="250" width="8" height="18" fill="#88304E" rx="0" transform="matrix(-.9826 .37604 -.22729 -.93073 701.011 346.167)"/><rect x="1159" y="971" width="11" height="16" fill="#E23E57" rx="0" transform="matrix(.93603 .54386 -.34076 .87036 386.321 -237.555)"/><rect x="786" y="131" width="10" height="27" fill="#522546" rx="0" transform="matrix(.98315 .3092 -.20828 .95164 59.851 -265.215)"/><rect x="1601" y="867" width="8" height="20" fill="#88304E" rx="0" transform="matrix(-.32012 .78298 -1.01794 -.63405 3299.322 373.442)"/><rect x="590" y="1181" width="11" height="13" fill="#E23E57" rx="0" transform="matrix(.3673 1.01626 -.9126 .19754 1366.294 507.305)"/><rect x="120" y="593" width="10" height="14" fill="#88304E" rx="0" transform="matrix(1.00597 .37604 -.16944 .93073 281.012 -16.376)"/><rect x="1421" y="655" width="9" height="12" fill="#311D3F" rx="0" transform="matrix(.76848 .9363 -.75755 .37829 1077.762 -723.397)"/><rect x="134" y="694" width="12" height="22" fill="#522546" rx="0" transform="matrix(-.81762 .43944 -.59925 -.90099 850.272 1268.886)"/><rect x="1171" y="945" width="12" height="34" fill="#522546" rx="0" transform="matrix(.43986 .93395 -.87488 .41582 1308.924 -287.108)"/><rect x="326" y="1322" width="12" height="15" fill="#88304E" rx="0" transform="matrix(-.33945 .80562 -.97608 -.62942 1914.3 1969.413)"/><rect x="1708" y="1053" width="10" height="18" fill="#E23E57" rx="0" transform="matrix(-.14028 .87454 -1.06248 -.50491 3430.71 340.884)"/><rect x="1153" y="291" width="7" height="17" fill="#311D3F" rx="0" transform="matrix(1.00901 .17367 -.0355 .98496 39.46 -176.163)"/><rect x="1196" y="272" width="13" height="34" fill="#E23E57" rx="0" transform="matrix(.27852 1.02218 -.97343 .01784 1177.442 -689.734)"/><rect x="1463" y="286" width="8" height="17" fill="#E23E57" rx="0" transform="matrix(.76507 .65696 -.64205 .75575 520.759 -814.944)"/><rect x="108" y="842" width="7" height="17" fill="#88304E" rx="0" transform="matrix(-.58127 .75705 -.79753 -.68165 778.306 1367.509)"/><rect x="1801" y="289" width="13" height="22" fill="#88304E" rx="0" transform="matrix(-.98753 -.08764 .12332 -1.00168 3486.604 948.882)"/><rect x="764" y="949" width="8" height="17" fill="#311D3F" rx="0" transform="matrix(.35926 .98776 -.93603 .20995 1406.931 105.803)"/><rect x="1049" y="485" width="8" height="14" fill="#E23E57" rx="0" transform="matrix(.15683 1.00107 -.99071 .05246 1395.044 -514.304)"/><rect x="1810" y="94" width="9" height="18" fill="#522546" rx="0" transform="matrix(-.78272 .71945 -.63408 -.69476 3292.566 -1162.552)"/><rect x="1545" y="870" width="10" height="10" fill="#E23E57" rx="0" transform="matrix(.71997 .74598 -.69225 .67169 1156.879 -1004.608)"/><rect x="34" y="1194" width="9" height="11" fill="#88304E" rx="0" transform="matrix(.44307 1.01856 -.97404 .01778 1468.46 1146.443)"/><rect x="1772" y="357" width="10" height="13" fill="#311D3F" rx="0" transform="matrix(-.53584 .6687 -.85687 -.79692 3071.15 -25.54)"/><rect x="805" y="1132" width="9" height="11" fill="#522546" rx="0" transform="matrix(.08749 1 -1.0092 -.1051 1993.6 532.638)"/><rect x="1490" y="121" width="11" height="30" fill="#311D3F" rx="0" transform="matrix(-.77317 .79783 -.64933 -.62334 2745.365 -1209.25)"/><rect x="1421" y="210" width="10" height="10" fill="#E23E57" rx="0" transform="matrix(-.86713 .29255 -.58197 -.95689 2858.602 53.352)"/><rect x="1289" y="1064" width="7" height="9" fill="#311D3F" rx="0" transform="matrix(-.27597 .9723 -.93882 -.31592 2415.472 424.088)"/><rect x="1919" y="548" width="12" height="32" fill="#311D3F" rx="0" transform="matrix(.67954 .5922 -.75331 .8151 1013.082 -1272.056)"/><rect x="809" y="769" width="8" height="14" fill="#311D3F" rx="0" transform="matrix(.94928 .84455 -.54376 .56966 731.023 -194.647)"/><rect x="1758" y="32" width="13" height="28" fill="#522546" rx="0" transform="matrix(.24333 .93586 -.97513 .35924 1384.064 -1745.236)"/><rect x="418" y="925" width="8" height="16" fill="#311D3F" rx="0" transform="matrix(-.99525 -.08764 .03504 -1.00168 758.081 1948.906)"/><rect x="1591" y="641" width="12" height="23" fill="#E23E57" rx="0" transform="matrix(-.16848 1 -.97332 -.15838 2557.3 -1094.094)"/><rect x="173" y="403" width="12" height="27" fill="#E23E57" rx="0" transform="matrix(.0001 .99634 -1.00366 .12233 583.009 171.543)"/><rect x="142" y="297" width="8" height="9" fill="#311D3F" rx="0" transform="matrix(-.82582 .52146 -.5433 -.86785 484.486 463.9)"/><rect x="1963" y="462" width="10" height="15" fill="#311D3F" rx="0" transform="matrix(-.877 .12744 -.70435 -1.0379 4331.79 1307.673)"/><rect x="1793" y="648" width="12" height="23" fill="#E23E57" rx="0" transform="matrix(1.00096 .01748 .12486 1.00122 25.792 -126.526)"/><rect x="1410" y="420" width="9" height="22" fill="#88304E" rx="0" transform="matrix(-.01385 .9657 -1.03975 .29525 1841.271 -1261.032)"/><rect x="387" y="1310" width="11" height="17" fill="#522546" rx="0" transform="matrix(.13936 .9962 -.99163 .08716 1714.36 812.579)"/><rect x="1307" y="169" width="10" height="10" fill="#522546" rx="0" transform="matrix(.0691 .95236 -1.07247 -.30944 1491.533 -952.897)"/><rect x="796" y="1187" width="9" height="26" fill="#E23E57" rx="0" transform="matrix(-.07033 1.00122 -.99755 -.01748 1923.332 461.448)"/><rect x="1715" y="554" width="10" height="15" fill="#522546" rx="0" transform="matrix(.07904 .94107 -1.09617 -.39946 2465.395 -467.245)"/><rect x="1215" y="49" width="9" height="18" fill="#311D3F" rx="0" transform="matrix(.84687 .59003 -.52921 .8121 214.564 -601.952)"/><rect x="643" y="1220" width="9" height="20" fill="#311D3F" rx="0" transform="matrix(.23171 .9926 -.95395 .22916 1431.753 431.28)"/><rect x="899" y="441" width="11" height="16" fill="#522546" rx="0" transform="matrix(-.3952 .97044 -.93192 -.24196 1619.512 -335.915)"/><rect x="633" y="1118" width="13" height="26" fill="#311D3F" rx="0" transform="matrix(1.01912 .2598 -.04558 .96962 367.996 -187.731)"/><rect x="834" y="628" width="12" height="21" fill="#311D3F" rx="0" transform="matrix(.68258 .89441 -.77027 .45572 952.998 -477.275)"/><rect x="1961" y="895" width="12" height="35" fill="#311D3F" rx="0" transform="matrix(.96737 .08781 -.33115 1.00368 283.977 -417.594)"/><rect x="1927" y="17" width="11" height="28" fill="#311D3F" rx="0" transform="matrix(-.96279 .12375 -.23955 -1.00786 3781.035 163.85)"/><rect x="1251" y="602" width="11" height="18" fill="#311D3F" rx="0" transform="matrix(.10408 .97564 -1.05092 -.24325 1953.1 -334.2)"/><rect x="1889" y="33" width="12" height="27" fill="#311D3F" rx="0" transform="matrix(-.83409 .1985 -.74681 -1.02119 3679.47 261.213)"/><rect x="1970" y="870" width="13" height="16" fill="#88304E" rx="0" transform="matrix(.29759 .9875 -.93292 .2646 2001.821 -886.006)"/><rect x="325" y="24" width="8" height="9" fill="#E23E57" rx="0" transform="matrix(-.99329 -.07083 -.08685 -1.01295 656.756 138.685)"/><rect x="369" y="1061" width="9" height="25" fill="#88304E" rx="0" transform="matrix(-.46016 .78478 -.9016 -.6355 1591.981 1515.09)"/><rect x="1364" y="368" width="12" height="23" fill="#311D3F" rx="0" transform="matrix(1.00202 .51574 -.2713 .85834 204.389 -581.013)"/><rect x="26" y="186" width="8" height="21" fill="#E23E57" rx="0" transform="matrix(-.98845 -.29152 -.01683 -1.01665 55.739 415.347)"/><rect x="84" y="1100" width="9" height="16" fill="#88304E" rx="0" transform="matrix(-.67335 .73854 -.72611 -.6887 1106.594 1793.282)"/><rect x="619" y="977" width="7" height="14" fill="#88304E" rx="0" transform="matrix(.09934 1.00692 -.98269 .10583 1356.16 351.65)"/><rect x="1405" y="1224" width="11" height="21" fill="#88304E" rx="0" transform="matrix(-.7682 .87682 -.69697 -.50623 3194.302 399.288)"/><rect x="1098" y="964" width="12" height="19" fill="#88304E" rx="0" transform="matrix(-.03715 .9707 -1.01952 -.27835 2256.144 327.965)"/><rect x="1885" y="573" width="9" height="22" fill="#522546" rx="0" transform="matrix(-.58217 .65808 -.80066 -.81266 3416.535 392.836)"/><rect x="1400" y="978" width="9" height="24" fill="#311D3F" rx="0" transform="matrix(-.76307 .35409 -.72766 -.97284 3413.021 1832.135)"/><rect x="1033" y="289" width="7" height="11" fill="#522546" rx="0" transform="matrix(-.31216 .98829 -.9624 -.15653 1611.763 -719.96)"/><rect x="653" y="118" width="10" height="11" fill="#88304E" rx="0" transform="matrix(-.52855 .56385 -.95963 -.86826 1199.049 36.026)"/><rect x="883" y="859" width="10" height="27" fill="#E23E57" rx="0" transform="matrix(.9848 .10478 -.17365 .99695 164.999 -152.482)"/><rect x="1548" y="888" width="8" height="11" fill="#88304E" rx="0" transform="matrix(-.87613 .53513 -.46662 -.85638 3375.9 610.041)"/><rect x="1961" y="821" width="12" height="19" fill="#88304E" rx="0" transform="matrix(.91913 .4499 -.33821 .92244 282.227 -366.423)"/><rect x="391" y="378" width="7" height="13" fill="#311D3F" rx="0" transform="matrix(-.99924 -.03495 .00002 -1.00076 781.62 803.755)"/><rect x="1948" y="893" width="7" height="16" fill="#311D3F" rx="0" transform="matrix(.91228 .47126 -.4062 .88632 518.468 -646.514)"/><rect x="1810" y="191" width="12" height="32" fill="#88304E" rx="0" transform="matrix(-.1566 .99467 -.9889 -.10454 2298.973 -1609.385)"/><rect x="441" y="889" width="9" height="25" fill="#E23E57" rx="0" transform="matrix(-.19083 .98616 -.98039 -.17389 1349.661 642.272)"/><rect x="111" y="161" width="7" height="15" fill="#311D3F" rx="0" transform="matrix(.99863 0 -.15758 1.00137 9.63 -6.232)"/><rect x="1498" y="1072" width="8" height="18" fill="#311D3F" rx="0" transform="matrix(-.98965 .01758 -.17435 -1.00736 3221.123 2327.964)"/><rect x="639" y="999" width="9" height="11" fill="#88304E" rx="0" transform="matrix(.86912 .42268 -.502 .90645 481.73 -166.789)"/><rect x="20" y="1266" width="10" height="16" fill="#E23E57" rx="0" transform="matrix(1.04887 .80547 -.3614 .67587 778.88 400.932)"/><rect x="1468" y="671" width="8" height="19" fill="#88304E" rx="0" transform="matrix(.40605 .9148 -.91235 .4073 1455.447 -866.104)"/><rect x="633" y="508" width="11" height="11" fill="#E23E57" rx="0" transform="matrix(-.0853 .98402 -.99965 -.19127 1288.963 -61.228)"/><rect x="474" y="1201" width="7" height="15" fill="#522546" rx="0" transform="matrix(.8999 .3908 -.43889 .92065 536.282 -99.037)"/><rect x="1142" y="373" width="12" height="34" fill="#88304E" rx="0" transform="matrix(-1.00561 .22509 -.0869 -.97496 2260.503 551.924)"/><rect x="978" y="788" width="10" height="10" fill="#E23E57" rx="0" transform="matrix(.73614 .66099 -.66606 .76038 659.144 -339.031)"/><rect x="1549" y="150" width="9" height="23" fill="#311D3F" rx="0" transform="matrix(.87414 .711 -.53233 .711 280.885 -1221.147)"/><rect x="916" y="980" width="12" height="24" fill="#311D3F" rx="0" transform="matrix(-.9941 -.0891 -.13965 -1.01845 1997.827 2280.433)"/><rect x="387" y="860" width="7" height="11" fill="#311D3F" rx="0" transform="matrix(.74522 .53 -.6942 .84818 548.91 -82.379)"/><rect x="1857" y="132" width="12" height="17" fill="#E23E57" rx="0" transform="matrix(-.76183 .53065 -.66532 -.84921 3384.872 -826.416)"/><rect x="579" y="1159" width="10" height="12" fill="#522546" rx="0" transform="matrix(-.12254 .97437 -.99801 -.22495 1940.696 858.036)"/><rect x="11" y="687" width="8" height="17" fill="#522546" rx="0" transform="matrix(-.53628 .80874 -.8175 -.63186 493.387 1126.288)"/><rect x="59" y="1157" width="12" height="30" fill="#E23E57" rx="0" transform="matrix(.91386 .68408 -.44687 .75975 612.255 250.927)"/><rect x="198" y="509" width="10" height="14" fill="#E23E57" rx="0" transform="matrix(-.0308 .91444 -1.07786 -.46593 895.38 617.655)"/><rect x="840" y="250" width="8" height="22" fill="#E23E57" rx="0" transform="matrix(-.94195 .01835 -.52992 -1.0513 1881.355 794.134)"/><rect x="1675" y="133" width="13" height="17" fill="#E23E57" rx="0" transform="matrix(.03177 1.0298 -.97666 -.18158 1708.915 -1050.338)"/><rect x="1617" y="214" width="13" height="35" fill="#311D3F" rx="0" transform="matrix(.96542 .49085 -.29561 .88552 150.188 -513.26)"/><rect x="735" y="1324" width="10" height="27" fill="#311D3F" rx="0" transform="matrix(1.00879 .17375 -.03416 .9854 270.466 -134.903)"/><rect x="1397" y="626" width="8" height="8" fill="#311D3F" rx="0" transform="matrix(.98878 .06985 -.17567 .99893 14.973 -23.767)"/><rect x="1887" y="809" width="10" height="15" fill="#311D3F" rx="0" transform="matrix(-.73916 .72474 -.666 -.69988 3864.903 -215.572)"/><rect x="575" y="646" width="11" height="13" fill="#E23E57" rx="0" transform="matrix(-.57998 .71592 -.7962 -.74136 1380.956 865.38)"/><rect x="286" y="1088" width="10" height="24" fill="#E23E57" rx="0" transform="matrix(-.91875 .10773 -.54125 -1.02497 1381.657 2268.67)"/><rect x="1613" y="776" width="8" height="20" fill="#88304E" rx="0" transform="matrix(-.99436 .19093 -.12213 -.98223 3295.395 1192.836)"/><rect x="198" y="230" width="8" height="16" fill="#E23E57" rx="0" transform="matrix(-.8451 .30906 -.63463 -.9512 602.229 405.48)"/><rect x="472" y="309" width="13" height="26" fill="#E23E57" rx="0" transform="matrix(-.75265 .65766 -.65472 -.75655 1069.638 217.46)"/><rect x="1926" y="992" width="13" height="33" fill="#311D3F" rx="0" transform="matrix(-.17217 .7731 -1.13848 -.6961 3951.44 770.646)"/><rect x="471" y="514" width="8" height="21" fill="#311D3F" rx="0" transform="matrix(-.84078 .26281 -.66717 -.98083 1375.955 997.863)"/><rect x="87" y="1209" width="7" height="19" fill="#88304E" rx="0" transform="matrix(-.80914 .57358 -.58787 -.81915 901.322 2164.728)"/><rect x="511" y="759" width="12" height="26" fill="#88304E" rx="0" transform="matrix(.72109 .75887 -.69092 .65967 817.092 -183.94)"/><rect x="1645" y="637" width="9" height="14" fill="#E23E57" rx="0" transform="matrix(.96923 .10467 -.33204 .99589 166.272 -256.454)"/><rect x="11" y="1169" width="13" height="37" fill="#88304E" rx="0" transform="matrix(.85507 .88322 -.65825 .48957 1125.426 593.134)"/><rect x="1287" y="1273" width="12" height="31" fill="#311D3F" rx="0" transform="matrix(.8951 .42423 -.43764 .90977 552.214 -319.148)"/><rect x="1435" y="1167" width="13" height="31" fill="#522546" rx="0" transform="matrix(.98786 .03533 -.0124 1.01185 200.407 -293.257)"/><rect x="793" y="179" width="12" height="12" fill="#E23E57" rx="0" transform="matrix(1.07417 .53194 -.16087 .85129 58.27 -327.608)"/><rect x="1156" y="947" width="7" height="18" fill="#311D3F" rx="0" transform="matrix(-.73839 .31848 -.86742 -.98017 3273.634 1812.866)"/><rect x="817" y="551" width="10" height="26" fill="#88304E" rx="0" transform="matrix(-.96542 .49085 -.29561 -.88552 1759.563 529.761)"/><rect x="692" y="709" width="9" height="10" fill="#311D3F" rx="0" transform="matrix(.29115 .94675 -.95027 .34459 1216.154 -276.967)"/><rect x="832" y="266" width="8" height="10" fill="#88304E" rx="0" transform="matrix(-.37691 .97974 -.93366 -.22619 1394.526 -574.63)"/><rect x="1312" y="468" width="10" height="14" fill="#311D3F" rx="0" transform="matrix(1.10204 .43753 .07776 .93828 50.505 -194.016)"/><rect x="1589" y="396" width="12" height="25" fill="#311D3F" rx="0" transform="matrix(.27247 .9939 -1.03958 -.12204 1754.515 -1043.341)"/><rect x="958" y="1251" width="10" height="26" fill="#311D3F" rx="0" transform="matrix(-.93079 .15993 -.376 -1.00975 2360.241 2591.009)"/><rect x="1851" y="671" width="8" height="13" fill="#311D3F" rx="0" transform="matrix(.72594 .59685 -.67629 .8215 984.934 -1313.313)"/><rect x="1382" y="68" width="9" height="11" fill="#E23E57" rx="0" transform="matrix(-1.00016 .15665 -.06891 -.98904 2757.75 1.664)"/><rect x="169" y="555" width="13" height="36" fill="#88304E" rx="0" transform="matrix(-1.0517 -.16122 -.43766 -1.01793 823.218 1228.323)"/><rect x="1059" y="966" width="9" height="25" fill="#E23E57" rx="0" transform="matrix(-.32316 .90977 -.94849 -.42423 2507.39 333.027)"/><rect x="976" y="291" width="12" height="15" fill="#311D3F" rx="0" transform="matrix(1.12073 .49652 .09378 .93382 24.032 -129.702)"/><rect x="696" y="644" width="13" height="29" fill="#522546" rx="0" transform="matrix(-.01819 .984 -1.01138 -.26366 1422.938 277.411)"/><rect x="1926" y="902" width="13" height="24" fill="#311D3F" rx="0" transform="matrix(-.3603 .86721 -.9451 -.50069 3665.36 -405.542)"/><rect x="804" y="168" width="10" height="11" fill="#311D3F" rx="0" transform="matrix(.0318 .96656 -1.04372 -.27716 1019.311 -475.328)"/><rect x="115" y="61" width="9" height="11" fill="#E23E57" rx="0" transform="matrix(-.10007 1.0023 -.98542 -.12307 204.861 -61.886)"/><rect x="226" y="1385" width="7" height="11" fill="#522546" rx="0" transform="matrix(.24194 .97452 -.9703 .22499 1571.581 850)"/><rect x="1005" y="710" width="7" height="15" fill="#522546" rx="0" transform="matrix(-.66577 .63018 -.76468 -.77821 2323.175 693.18)"/><rect x="1141" y="151" width="7" height="8" fill="#311D3F" rx="0" transform="matrix(-.69182 .62516 -.7141 -.80017 2032.661 -638.275)"/><rect x="1633" y="872" width="8" height="17" fill="#311D3F" rx="0" transform="matrix(-.6035 .65696 -.82792 -.75575 3524.294 556.283)"/><rect x="79" y="512" width="8" height="12" fill="#311D3F" rx="0" transform="matrix(.68097 .90475 -.7583 .461 465.88 218.746)"/><rect x="299" y="95" width="9" height="16" fill="#311D3F" rx="0" transform="matrix(-.85019 .44384 -.50994 -.91 603.492 110.095)"/><rect x="36" y="306" width="10" height="12" fill="#311D3F" rx="0" transform="matrix(.98327 .78316 -.45182 .65715 221.616 83.575)"/><rect x="611" y="712" width="13" height="25" fill="#E23E57" rx="0" transform="matrix(.45067 .97767 -.88506 .2989 950.553 35.487)"/><rect x="1234" y="457" width="7" height="19" fill="#E23E57" rx="0" transform="matrix(.9925 .31134 -.15735 .9582 104.282 -213.834)"/><rect x="1226" y="19" width="11" height="32" fill="#88304E" rx="0" transform="matrix(-.52881 .811 -.84885 -.58922 1905.256 -1029.23)"/><rect x="193" y="355" width="12" height="19" fill="#311D3F" rx="0" transform="matrix(.06449 .95814 -1.06845 -.3678 662.858 353.835)"/><rect x="1835" y="1250" width="9" height="11" fill="#88304E" rx="0" transform="matrix(.05286 1.00306 -.99325 .07014 3082.228 -871.028)"/><rect x="351" y="366" width="11" height="13" fill="#522546" rx="0" transform="matrix(1.07208 .60773 -.22277 .80648 194.595 -94.468)"/><rect x="604" y="63" width="10" height="21" fill="#E23E57" rx="0" transform="matrix(.44075 .84072 -.90323 .54597 405.351 -521.212)"/><rect x="1641" y="548" width="10" height="12" fill="#311D3F" rx="0" transform="matrix(-.85987 .5886 -.51546 -.81013 3256.926 120.251)"/><rect x="1792" y="86" width="10" height="29" fill="#88304E" rx="0" transform="matrix(.97035 .49652 -.18904 .93382 47.164 -266.844)"/><rect x="1335" y="997" width="9" height="14" fill="#311D3F" rx="0" transform="matrix(.88295 .36106 -.46947 .9406 628.141 -588.463)"/><rect x="918" y="1262" width="9" height="21" fill="#88304E" rx="0" transform="matrix(.8106 .68575 -.58898 .73538 948.096 -198.924)"/><rect x="592" y="137" width="12" height="22" fill="#E23E57" rx="0" transform="matrix(-.694 .73236 -.71829 -.68293 1106.778 -157.536)"/><rect x="25" y="502" width="10" height="23" fill="#311D3F" rx="0" transform="matrix(-.43268 .88958 -.89407 -.473 582.831 726.013)"/><rect x="1470" y="838" width="11" height="17" fill="#311D3F" rx="0" transform="matrix(-.80547 .33705 -.62764 -.97887 3282.107 1573.153)"/><rect x="213" y="1208" width="13" height="35" fill="#311D3F" rx="0" transform="matrix(-.91912 .17495 -.50327 -.9922 1304.222 2429.995)"/><rect x="1147" y="71" width="11" height="18" fill="#522546" rx="0" transform="matrix(.85652 .73685 -.55842 .68712 237.235 -682.675)"/><rect x="1490" y="50" width="7" height="12" fill="#311D3F" rx="0" transform="matrix(.33988 .99756 -.9727 .08728 1033.545 -1517.017)"/><rect x="1403" y="886" width="7" height="17" fill="#311D3F" rx="0" transform="matrix(.86044 .71018 -.51708 .73541 679.647 -463.228)"/><rect x="339" y="588" width="12" height="21" fill="#311D3F" rx="0" transform="matrix(.4922 .95814 -.85476 .3678 639.344 127.467)"/><rect x="81" y="1308" width="13" height="32" fill="#E23E57" rx="0" transform="matrix(1.04414 .15682 .21555 .9901 117.41 5.505)"/><rect x="1248" y="133" width="9" height="16" fill="#522546" rx="0" transform="matrix(.7548 .90987 -.68068 .50435 429.311 -710.572)"/><rect x="773" y="1023" width="10" height="29" fill="#E23E57" rx="0" transform="matrix(1.01238 .69386 -.2766 .7982 437.623 -62.566)"/><rect x="142" y="776" width="7" height="20" fill="#311D3F" rx="0" transform="matrix(-.90716 .22581 -.49914 -.9781 825.073 1534.655)"/><rect x="1669" y="992" width="13" height="17" fill="#522546" rx="0" transform="matrix(-.65564 .72033 -.75511 -.69561 3625.447 401.742)"/><rect x="289" y="1297" width="11" height="26" fill="#88304E" rx="0" transform="matrix(1.01296 .0698 .15913 .99817 44.367 -7.877)"/><rect x="482" y="215" width="13" height="32" fill="#522546" rx="0" transform="matrix(-.1908 .94798 -.98163 -.3639 808.466 -61.894)"/><rect x="1168" y="681" width="9" height="18" fill="#311D3F" rx="0" transform="matrix(-.3298 .94149 -.9289 -.38039 2302.852 -358.171)"/><rect x="739" y="266" width="10" height="21" fill="#88304E" rx="0" transform="matrix(-.46997 .8573 -.88407 -.51512 1356.53 -231.886)"/><rect x="186" y="169" width="11" height="26" fill="#E23E57" rx="0" transform="matrix(.52858 .7756 -.8458 .6508 246.862 -115.302)"/><rect x="1731" y="164" width="12" height="17" fill="#E23E57" rx="0" transform="matrix(-.40205 .74496 -.98035 -.67076 2688.76 -884.325)"/><rect x="526" y="777" width="11" height="23" fill="#88304E" rx="0" transform="matrix(.58262 .90099 -.82573 .43944 1046.387 -74.041)"/><rect x="1262" y="514" width="9" height="9" fill="#E23E57" rx="0" transform="matrix(.99498 .01758 .13075 1.00736 35.83 -181.59)"/><rect x="1207" y="1124" width="12" height="27" fill="#311D3F" rx="0" transform="matrix(.91184 .43944 -.40607 .90099 526.16 -335.596)"/><rect x="626" y="282" width="9" height="9" fill="#88304E" rx="0" transform="matrix(-.99832 -.01746 .07008 -1.00046 1212.872 606.159)"/><rect x="282" y="362" width="13" height="18" fill="#88304E" rx="0" transform="matrix(.35745 .94276 -.92351 .36189 574.441 -75.792)"/><rect x="1933" y="58" width="7" height="13" fill="#522546" rx="0" transform="matrix(.93663 .45572 -.35606 .89441 125.284 -1045.122)"/><rect x="1259" y="925" width="12" height="21" fill="#88304E" rx="0" transform="matrix(.72195 .86933 -.73349 .50191 1321.916 -744.417)"/><rect x="632" y="1174" width="9" height="15" fill="#E23E57" rx="0" transform="matrix(-.99329 -.07083 -.08685 -1.01295 1348.754 2535.621)"/><rect x="1300" y="1110" width="10" height="11" fill="#E23E57" rx="0" transform="matrix(-.92173 .25945 -.41436 -.96828 3206.534 1765.783)"/><rect x="653" y="923" width="8" height="11" fill="#E23E57" rx="0" transform="matrix(-.25882 .94783 -.96593 -.32636 1723.906 654.747)"/><rect x="1960" y="1198" width="11" height="17" fill="#522546" rx="0" transform="matrix(1.05052 .19084 .1644 .98178 129.596 -318.798)"/><rect x="429" y="946" width="9" height="9" fill="#311D3F" rx="0" transform="matrix(.56272 .74598 -.83384 .67169 934.297 -49.248)"/><rect x="952" y="300" width="8" height="11" fill="#522546" rx="0" transform="matrix(-.51685 .89893 -.86035 -.43844 1692.749 -436.622)"/><rect x="1198" y="242" width="13" height="21" fill="#E23E57" rx="0" transform="matrix(-.647 .83918 -.77147 -.54497 2160.192 -662.751)"/><rect x="1317" y="1381" width="8" height="22" fill="#88304E" rx="0" transform="matrix(-.98406 .13936 -.1735 -.99163 2836.95 2657.476)"/><rect x="1507" y="1170" width="13" height="18" fill="#522546" rx="0" transform="matrix(.37948 .97874 -.94106 .20804 2221.797 -494.753)"/><rect x="491" y="667" width="8" height="16" fill="#311D3F" rx="0" transform="matrix(.26636 1.00692 -1.02112 -.10583 1212.55 326.412)"/><rect x="200" y="701" width="13" height="31" fill="#88304E" rx="0" transform="matrix(.45849 .81965 -.899 .57393 681.4 128.813)"/><rect x="1482" y="613" width="13" height="13" fill="#522546" rx="0" transform="matrix(-.8873 .57498 -.472 -.82115 3074.641 168.264)"/><rect x="368" y="292" width="10" height="29" fill="#E23E57" rx="0" transform="matrix(.39568 1.0446 -1.01997 -.16545 630.48 96.008)"/><rect x="196" y="394" width="10" height="18" fill="#522546" rx="0" transform="matrix(-.5064 .82308 -.83334 -.62024 574.941 537.631)"/><rect x="1836" y="74" width="7" height="17" fill="#311D3F" rx="0" transform="matrix(.50226 .97756 -.84015 .3558 931.54 -1217.61)"/><rect x="1046" y="437" width="9" height="19" fill="#311D3F" rx="0" transform="matrix(-.9563 0 -.49563 -1.0457 2425.618 1234.571)"/><rect x="1438" y="371" width="9" height="24" fill="#E23E57" rx="0" transform="matrix(.96718 .71978 -.45532 .69508 370.955 -871.123)"/><rect x="290" y="548" width="11" height="20" fill="#311D3F" rx="0" transform="matrix(.96238 .19268 -.23884 .99127 189.577 -93.599)"/><rect x="1161" y="1188" width="10" height="27" fill="#522546" rx="0" transform="matrix(-.9387 .17896 -.2641 -1.01496 2368.112 2503.014)"/><rect x="68" y="164" width="10" height="13" fill="#522546" rx="0" transform="matrix(-.63807 .55996 -.83986 -.83018 312.763 274.994)"/><rect x="472" y="1228" width="11" height="22" fill="#88304E" rx="0" transform="matrix(-.9782 -.07294 -.27962 -1.04314 1363.62 2712.273)"/><rect x="204" y="879" width="11" height="30" fill="#311D3F" rx="0" transform="matrix(-.91406 .20794 -.50868 -.9783 1145.043 1721.376)"/><rect x="641" y="1327" width="7" height="8" fill="#522546" rx="0" transform="matrix(1.00579 .37483 -.17843 .92775 472.425 -122.909)"/><rect x="1855" y="1230" width="12" height="26" fill="#88304E" rx="0" transform="matrix(-.24823 .82115 -1.04399 -.57498 4066.791 559.666)"/><rect x="1917" y="324" width="7" height="16" fill="#522546" rx="0" transform="matrix(.84134 .77026 -.59229 .64633 585.905 -1160.02)"/><rect x="696" y="1162" width="10" height="25" fill="#522546" rx="0" transform="matrix(.984 -.05285 .14566 1.00844 88.55 -71.388)"/><rect x="1981" y="42" width="13" height="32" fill="#88304E" rx="0" transform="matrix(.98122 .59381 -.28272 .84805 95.026 -638.835)"/><rect x="1719" y="1388" width="12" height="33" fill="#E23E57" rx="0" transform="matrix(-.49945 .89318 -.86511 -.4551 3824.006 382.324)"/><rect x="124" y="993" width="13" height="30" fill="#88304E" rx="0" transform="matrix(-.07563 .94276 -1.03169 -.36189 1342.868 1268.096)"/><rect x="747" y="378" width="7" height="20" fill="#88304E" rx="0" transform="matrix(.15527 1.01231 -.99055 -.01767 1105.748 -483.75)"/><rect x="527" y="317" width="13" height="16" fill="#E23E57" rx="0" transform="matrix(.24738 1.00737 -1.00998 -.07044 800.293 -114.558)"/><rect x="643" y="860" width="9" height="23" fill="#88304E" rx="0" transform="matrix(-.871 .27568 -.58986 -.9614 2021.725 1519.563)"/><rect x="433" y="698" width="10" height="15" fill="#522546" rx="0" transform="matrix(-.14353 .93064 -1.01062 -.41435 1283.031 675.34)"/><rect x="1739" y="1223" width="9" height="15" fill="#522546" rx="0" transform="matrix(.16614 .90211 -1.02386 .45965 2562.543 -1184.076)"/><rect x="1646" y="1282" width="12" height="20" fill="#E23E57" rx="0" transform="matrix(.66012 .89658 -.73424 .51764 1419.205 -415.279)"/><rect x="459" y="12" width="10" height="16" fill="#88304E" rx="0" transform="matrix(.84075 .47012 -.54591 .88416 84.96 -240.134)"/><rect x="1281" y="824" width="13" height="31" fill="#311D3F" rx="0" transform="matrix(-.37056 .92244 -.89527 -.47 2307.324 391.416)"/><rect x="1102" y="865" width="8" height="9" fill="#88304E" rx="0" transform="matrix(.9939 .03492 -.17486 1 71.466 -77.245)"/><rect x="257" y="811" width="7" height="9" fill="#E23E57" rx="0" transform="matrix(.9574 .65646 -.42197 .75517 632.885 19.555)"/><rect x="1439" y="1183" width="9" height="24" fill="#88304E" rx="0" transform="matrix(.31724 1.01527 -.9905 -.01772 2398.792 5.16)"/><rect x="172" y="907" width="7" height="15" fill="#88304E" rx="0" transform="matrix(-.95946 .08824 -.36576 -1.00861 794.076 1849.186)"/><rect x="1434" y="55" width="8" height="10" fill="#522546" rx="0" transform="matrix(-.7715 .54472 -.6478 -.8388 2591.18 -698.083)"/><rect x="1216" y="783" width="7" height="14" fill="#88304E" rx="0" transform="matrix(-.77974 .55304 -.6075 -.8516 2562.381 1003.368)"/><rect x="799" y="1125" width="7" height="14" fill="#E23E57" rx="0" transform="matrix(.64955 .84691 -.75894 .55 1413.454 -283.022)"/><rect x="192" y="928" width="10" height="13" fill="#88304E" rx="0" transform="matrix(-.37326 .90852 -.92664 -.42365 1249.525 1137.647)"/><rect x="363" y="1287" width="10" height="16" fill="#88304E" rx="0" transform="matrix(-.13984 1.00536 -.99711 .01755 1644.885 863.626)"/><rect x="1874" y="533" width="9" height="21" fill="#522546" rx="0" transform="matrix(.8707 .49085 -.46647 .88552 378.205 -562.323)"/><rect x="1532" y="981" width="11" height="28" fill="#311D3F" rx="0" transform="matrix(.76747 .58814 -.64393 .80951 965.35 -768.424)"/><rect x="225" y="597" width="11" height="29" fill="#88304E" rx="0" transform="matrix(1.04761 .50771 -.1551 .87939 222.487 -2.629)"/><rect x="1157" y="633" width="10" height="26" fill="#88304E" rx="0" transform="matrix(.88586 .66923 -.5104 .74326 606.812 -632.076)"/><rect x="1357" y="1104" width="9" height="12" fill="#E23E57" rx="0" transform="matrix(-.69223 .56133 -.7552 -.8322 3464.215 1150.382)"/><rect x="392" y="1154" width="10" height="26" fill="#88304E" rx="0" transform="matrix(.15923 1.002 -.98128 .10531 1676.117 597.563)"/><rect x="88" y="1298" width="7" height="7" fill="#522546" rx="0" transform="matrix(-.91032 .22998 -.40523 -.99614 679.145 2596.38)"/><rect x="219" y="739" width="13" height="38" fill="#E23E57" rx="0" transform="matrix(-.96117 .17407 -.29366 -.98721 705.39 1482.822)"/><rect x="781" y="301" width="8" height="8" fill="#311D3F" rx="0" transform="matrix(-.49526 .81358 -.85592 -.61308 1402.84 5.915)"/><rect x="986" y="61" width="10" height="12" fill="#88304E" rx="0" transform="matrix(-.05264 1.0023 -.99124 -.12307 1095.15 -778.758)"/><rect x="1679" y="859" width="7" height="14" fill="#522546" rx="0" transform="matrix(-1.03884 -.12375 -.3798 -1.00786 4137.034 2243.683)"/><rect x="1823" y="460" width="13" height="15" fill="#522546" rx="0" transform="matrix(-.51369 .88632 -.85513 -.47126 3179.8 -1093.767)"/><rect x="789" y="766" width="7" height="7" fill="#E23E57" rx="0" transform="matrix(.9848 .03524 -.17365 1.00921 145.662 -146.397)"/><rect x="686" y="23" width="11" height="22" fill="#E23E57" rx="0" transform="matrix(.65699 .70754 -.75636 .70754 256.797 -455.171)"/><rect x="1821" y="172" width="13" height="31" fill="#E23E57" rx="0" transform="matrix(-.69372 .43017 -.76653 -.96618 3310.452 211.777)"/><rect x="992" y="492" width="12" height="26" fill="#522546" rx="0" transform="matrix(.4605 .95645 -.90474 .29242 1078.055 -579.788)"/><rect x="646" y="980" width="11" height="16" fill="#E23E57" rx="0" transform="matrix(.7716 .73538 -.64032 .68575 993.73 -237.103)"/><rect x="1386" y="1274" width="7" height="19" fill="#311D3F" rx="0" transform="matrix(-.87725 .22916 -.56395 -.9926 3578.333 2509.183)"/><rect x="865" y="1249" width="12" height="14" fill="#88304E" rx="0" transform="matrix(.93778 .38298 -.29004 .9479 241.525 -82.994)"/><rect x="392" y="530" width="12" height="35" fill="#311D3F" rx="0" transform="matrix(-.11263 .85065 -1.09374 -.61803 1197.905 676.633)"/><rect x="1656" y="113" width="7" height="12" fill="#522546" rx="0" transform="matrix(.9641 .37604 -.27308 .93073 86.98 -760.978)"/><rect x="59" y="27" width="7" height="19" fill="#88304E" rx="0" transform="matrix(-.99617 .24285 -.12242 -.974 128.145 51.405)"/><rect x="1894" y="1326" width="10" height="20" fill="#88304E" rx="0" transform="matrix(.9574 .26281 -.23196 .98083 585.42 -808.309)"/><rect x="915" y="1364" width="12" height="24" fill="#311D3F" rx="0" transform="matrix(-.95807 .22509 -.29287 -.97496 2255.535 2542.406)"/><rect x="1972" y="1026" width="8" height="8" fill="#311D3F" rx="0" transform="matrix(.7743 .98017 -.76864 .31848 1617.323 -742.179)"/><rect x="1146" y="282" width="11" height="15" fill="#522546" rx="0" transform="matrix(.98303 .32636 -.20915 .94783 99.48 -280.182)"/><rect x="775" y="608" width="10" height="16" fill="#88304E" rx="0" transform="matrix(.96223 .30269 -.15646 .99004 24.547 -20.959)"/><rect x="1897" y="1164" width="11" height="30" fill="#88304E" rx="0" transform="matrix(.9195 .29602 -.37067 .96823 651.552 -827.035)"/><rect x="150" y="130" width="12" height="28" fill="#E23E57" rx="0" transform="matrix(.81388 .7885 -.63237 .61604 159.825 -73.162)"/><rect x="550" y="993" width="13" height="31" fill="#522546" rx="0" transform="matrix(.93254 .41073 -.34015 .92252 304.589 -72.227)"/><rect x="1792" y="1052" width="9" height="19" fill="#E23E57" rx="0" transform="matrix(.24786 .99801 -.97156 .12254 2583.998 -1050.328)"/><rect x="1002" y="707" width="11" height="26" fill="#522546" rx="0" transform="matrix(1.02293 .12189 .12682 .9927 73.802 -135.13)"/><rect x="1001" y="1239" width="9" height="9" fill="#88304E" rx="0" transform="matrix(.13774 .96886 -1.0769 -.3148 2591.694 856.218)"/><rect x="1559" y="1110" width="7" height="17" fill="#311D3F" rx="0" transform="matrix(-.12278 1 -1.01074 .08749 2764.316 -678.557)"/><rect x="695" y="1292" width="10" height="14" fill="#311D3F" rx="0" transform="matrix(-.2392 .9233 -.9559 -.49092 2029.857 1504.416)"/><rect x="505" y="273" width="13" height="38" fill="#E23E57" rx="0" transform="matrix(-.37273 .87939 -.92196 -.50771 958.018 80.638)"/><rect x="209" y="316" width="9" height="9" fill="#E23E57" rx="0" transform="matrix(.75517 .682 -.65646 .73135 273.858 -59.506)"/><rect x="455" y="640" width="11" height="11" fill="#311D3F" rx="0" transform="matrix(-.45456 .86616 -.89208 -.50008 1268.488 577.472)"/><rect x="269" y="414" width="12" height="29" fill="#88304E" rx="0" transform="matrix(.78655 .54672 -.61792 .84187 243.679 -58.532)"/><rect x="62" y="774" width="10" height="15" fill="#522546" rx="0" transform="matrix(-.96923 .19186 -.22587 -.98703 417.302 1532.97)"/><rect x="564" y="793" width="12" height="31" fill="#88304E" rx="0" transform="matrix(-.682 .56131 -.73135 -.86435 1550.039 1329.492)"/><rect x="218" y="263" width="11" height="15" fill="#88304E" rx="0" transform="matrix(.95085 .42108 -.23918 .94577 46.778 -19.557)"/><rect x="936" y="1139" width="8" height="9" fill="#E23E57" rx="0" transform="matrix(.8262 .45427 -.57982 .89155 618.973 -270.173)"/><rect x="1572" y="1102" width="7" height="17" fill="#88304E" rx="0" transform="matrix(-.9998 .24196 -.12295 -.97044 3173.398 1779.471)"/><rect x="672" y="278" width="11" height="32" fill="#88304E" rx="0" transform="matrix(-.65136 .73538 -.75244 -.68575 1371.323 -73.818)"/><rect x="1857" y="873" width="11" height="20" fill="#311D3F" rx="0" transform="matrix(-.96791 .13951 -.28076 -.99269 4073.146 1369.46)"/><rect x="1720" y="1061" width="13" height="23" fill="#E23E57" rx="0" transform="matrix(1.03145 .6687 -.26622 .79692 507.619 -441.622)"/><rect x="1767" y="1142" width="10" height="29" fill="#E23E57" rx="0" transform="matrix(-.99003 -.14408 -.10397 -1.0252 3618.107 3072.265)"/><rect x="641" y="1095" width="12" height="24" fill="#E23E57" rx="0" transform="matrix(-.57222 .89162 -.8173 -.47409 1939.706 964.001)"/><rect x="1142" y="982" width="8" height="21" fill="#311D3F" rx="0" transform="matrix(.13917 1 -.99027 .06993 1969.349 -142.766)"/><rect x="76" y="914" width="10" height="27" fill="#522546" rx="0" transform="matrix(1.00845 -.12307 -.08754 1.0023 16.448 -3.55)"/><rect x="159" y="450" width="7" height="18" fill="#E23E57" rx="0" transform="matrix(.56723 .99405 -.92627 .1397 658.423 247.56)"/><rect x="444" y="200" width="8" height="17" fill="#88304E" rx="0" transform="matrix(.79633 .47671 -.60001 .89657 218.606 -270.997)"/><rect x="1176" y="638" width="11" height="20" fill="#88304E" rx="0" transform="matrix(.97994 .42288 -.26328 .90686 291.18 -398.014)"/><rect x="871" y="966" width="7" height="17" fill="#E23E57" rx="0" transform="matrix(1.07456 .34842 .08224 .95728 140.005 -93.079)"/><rect x="1884" y="359" width="10" height="21" fill="#522546" rx="0" transform="matrix(.74915 .98655 -.79882 .28289 984.875 -1162.504)"/><rect x="319" y="867" width="13" height="38" fill="#88304E" rx="0" transform="matrix(-.37357 .93586 -.92513 -.35924 1312.008 876.906)"/><rect x="1731" y="701" width="13" height="17" fill="#311D3F" rx="0" transform="matrix(.9881 .30132 -.08675 .98558 42.311 -80.11)"/><rect x="1560" y="136" width="10" height="22" fill="#522546" rx="0" transform="matrix(.98413 -.05314 .03874 1.01404 -1.28 -194.846)"/><rect x="1233" y="152" width="9" height="10" fill="#88304E" rx="0" transform="matrix(.22416 1.01732 -.97123 .05332 1105.64 -869.76)"/><rect x="868" y="58" width="13" height="27" fill="#E23E57" rx="0" transform="matrix(1.08678 .42677 -.01256 .91521 -15.558 -244.247)"/><rect x="947" y="1164" width="7" height="13" fill="#311D3F" rx="0" transform="matrix(1.0449 .29688 .04935 .97106 135.502 -80.71)"/><rect x="1106" y="724" width="12" height="24" fill="#E23E57" rx="0" transform="matrix(.78886 .55996 -.6163 .83018 676.558 -555.962)"/><rect x="1090" y="326" width="9" height="19" fill="#522546" rx="0" transform="matrix(-.79444 .54764 -.60269 -.84329 2205.092 -96.004)"/><rect x="1602" y="1230" width="11" height="31" fill="#E23E57" rx="0" transform="matrix(-.9513 .0365 -.16005 -1.04505 3060.944 2979.913)"/><rect x="664" y="366" width="13" height="19" fill="#311D3F" rx="0" transform="matrix(-.52844 .86189 -.84272 -.51788 1286.505 62.538)"/><rect x="1008" y="403" width="8" height="22" fill="#522546" rx="0" transform="matrix(1.0329 .12278 .26795 1 0 0)"/><rect x="1902" y="17" width="9" height="25" fill="#88304E" rx="0" transform="matrix(.93047 .1746 -.45024 .99023 175.964 -532.977)"/><rect x="973" y="1102" width="9" height="24" fill="#E23E57" rx="0" transform="matrix(-.9396 .19154 -.38708 -.98538 2622.078 1938.961)"/><rect x="271" y="77" width="11" height="23" fill="#E23E57" rx="0" transform="matrix(-.481 .81358 -.86666 -.61308 478.744 -28.452)"/><rect x="1603" y="602" width="9" height="15" fill="#E23E57" rx="0" transform="matrix(.71424 .91562 -.7438 .44658 1025.913 -822.075)"/><rect x="170" y="1293" width="9" height="20" fill="#88304E" rx="0" transform="matrix(.49701 .8656 -.85664 .5201 1360.956 449.74)"/><rect x="748" y="1374" width="8" height="9" fill="#522546" rx="0" transform="matrix(.72696 .7891 -.69932 .6165 1429.625 -104.162)"/><rect x="1242" y="603" width="10" height="24" fill="#E23E57" rx="0" transform="matrix(.93355 .31134 -.33879 .9582 331.632 -515.643)"/><rect x="130" y="153" width="9" height="22" fill="#311D3F" rx="0" transform="matrix(.79759 .78801 -.64587 .61566 171.01 -42.956)"/><rect x="1526" y="406" width="12" height="15" fill="#E23E57" rx="0" transform="matrix(-.10768 .9604 -1.00624 -.31205 2181.287 -1144.112)"/><rect x="1200" y="192" width="11" height="12" fill="#E23E57" rx="0" transform="matrix(-1.06402 -.23653 -.38093 -1.02451 2732.689 1077.678)"/><rect x="716" y="1253" width="7" height="20" fill="#522546" rx="0" transform="matrix(-.85373 .6297 -.53378 -.77762 1899.624 1766.936)"/><rect x="867" y="694" width="10" height="17" fill="#E23E57" rx="0" transform="matrix(1.02513 .33166 -.03794 .96322 96.39 -93.868)"/><rect x="206" y="125" width="9" height="22" fill="#E23E57" rx="0" transform="matrix(.0705 .98223 -1.0044 .19093 321.002 -104.075)"/><rect x="227" y="857" width="9" height="18" fill="#522546" rx="0" transform="matrix(.45174 .87253 -.88528 .50375 952.142 199.333)"/><rect x="854" y="768" width="11" height="22" fill="#522546" rx="0" transform="matrix(-1.00069 -.17896 -.08747 -1.01496 1805.07 1937.768)"/><rect x="59" y="796" width="11" height="19" fill="#E23E57" rx="0" transform="matrix(-.20679 .97267 -.97655 -.24251 948.633 933.597)"/><rect x="563" y="1320" width="12" height="27" fill="#E23E57" rx="0" transform="matrix(.97853 .10467 -.24356 .99589 222.95 -83.893)"/><rect x="1635" y="189" width="8" height="13" fill="#E23E57" rx="0" transform="matrix(-.0895 .95728 -1.01205 -.34842 2019.487 -986.777)"/><rect x="1207" y="977" width="9" height="22" fill="#E23E57" rx="0" transform="matrix(-.82808 .41301 -.56133 -.92764 3035.962 1190.523)"/><rect x="822" y="899" width="11" height="24" fill="#311D3F" rx="0" transform="matrix(-.41953 .89395 -.89556 -.47532 1880.988 735.336)"/><rect x="882" y="1096" width="11" height="23" fill="#88304E" rx="0" transform="matrix(-.7937 .31992 -.68302 -.9846 2537.428 2151.83)"/><rect x="568" y="66" width="9" height="16" fill="#522546" rx="0" transform="matrix(.6579 1.03282 -.86402 .16358 312.721 -354.362)"/><rect x="1215" y="353" width="10" height="23" fill="#311D3F" rx="0" transform="matrix(.97957 .19438 -.1051 1 0 0)"/><rect x="1936" y="1154" width="12" height="30" fill="#88304E" rx="0" transform="matrix(1.01586 .20842 -.01878 .98054 151.363 -246.2)"/><rect x="1394" y="1050" width="11" height="11" fill="#88304E" rx="0" transform="matrix(1.05528 .55483 -.17736 .85437 416.33 -350.738)"/><rect x="1647" y="748" width="11" height="22" fill="#522546" rx="0" transform="matrix(.6011 .79973 -.79745 .60264 1299.68 -1106.565)"/><rect x="84" y="1148" width="10" height="29" fill="#522546" rx="0" transform="matrix(.7271 .63279 -.68243 .78143 610.979 207.128)"/><rect x="1083" y="641" width="11" height="26" fill="#E23E57" rx="0" transform="matrix(.42965 .99467 -.9602 .10454 1467.444 -516.074)"/><rect x="374" y="574" width="7" height="20" fill="#88304E" rx="0" transform="matrix(.1046 .99924 -.99528 .05237 929.682 189.387)"/><rect x="111" y="874" width="9" height="12" fill="#88304E" rx="0" transform="matrix(-.80551 .24829 -.79688 -.99582 1221.98 1754.309)"/><rect x="674" y="1164" width="13" height="29" fill="#88304E" rx="0" transform="matrix(.98784 .45461 -.26093 .89223 622.001 -218.02)"/><rect x="1358" y="34" width="12" height="27" fill="#311D3F" rx="0" transform="matrix(.08726 .99832 -.99251 .10493 1287.096 -1438.528)"/><rect x="1626" y="503" width="7" height="8" fill="#E23E57" rx="0" transform="matrix(.69744 .57393 -.74634 .81965 792.058 -900.68)"/><rect x="531" y="1136" width="8" height="23" fill="#311D3F" rx="0" transform="matrix(.97926 .5153 -.24447 .89254 336.356 -18.986)"/><rect x="1490" y="443" width="7" height="10" fill="#E23E57" rx="0" transform="matrix(-.01901 .97446 -1.01966 -.33553 2036.07 -484.671)"/><rect x="572" y="367" width="10" height="25" fill="#88304E" rx="0" transform="matrix(-.7475 .75575 -.6734 -.65696 1239.443 162.512)"/><rect x="176" y="580" width="9" height="9" fill="#88304E" rx="0" transform="matrix(.28988 .93073 -.95731 .37604 581.878 212.502)"/><rect x="1783" y="644" width="7" height="15" fill="#522546" rx="0" transform="matrix(-.9845 -.01778 -.15587 -1.01856 3629.42 1694.116)"/><rect x="808" y="1334" width="7" height="17" fill="#E23E57" rx="0" transform="matrix(-.97934 .25886 -.20819 -.96607 1839.334 2415.225)"/><rect x="1429" y="1018" width="12" height="34" fill="#E23E57" rx="0" transform="matrix(-.3802 .98857 -.94452 -.17431 2846.502 -328.731)"/><rect x="1582" y="1384" width="9" height="14" fill="#E23E57" rx="0" transform="matrix(-.96058 .07044 -.45908 -1.00737 4151.45 2903.46)"/><rect x="1020" y="1126" width="8" height="15" fill="#522546" rx="0" transform="matrix(-.73135 .54497 -.70878 -.83918 2829.737 1490.903)"/><rect x="242" y="788" width="7" height="20" fill="#522546" rx="0" transform="matrix(.80349 .70332 -.5898 .7283 736.575 5.264)"/><rect x="1331" y="856" width="8" height="20" fill="#E23E57" rx="0" transform="matrix(.7778 .97756 -.73986 .3558 1180.09 -364.365)"/><rect x="1177" y="106" width="8" height="23" fill="#311D3F" rx="0" transform="matrix(.76725 .92327 -.72533 .43053 427.565 -793.907)"/><rect x="1849" y="331" width="13" height="16" fill="#E23E57" rx="0" transform="matrix(.9063 .64859 -.42262 .80094 317.113 -673.341)"/><rect x="1216" y="1230" width="8" height="14" fill="#522546" rx="0" transform="matrix(.97985 .03524 -.31548 1.00921 265.079 -225.851)"/><rect x="247" y="190" width="9" height="15" fill="#311D3F" rx="0" transform="matrix(.85792 .60932 -.50268 .8086 177.258 -155.273)"/></svg>